<?xml version="1.0" encoding="UTF-8"?>
<svg version="1.1" xmlns="http://www.w3.org/2000/svg" width="88" height="88">
<path d="M0 0 C2.90827178 1.76226134 5.0299564 3.27450456 6.95703125 6.109375 C8.94597041 8.51574583 10.27283951 8.752104 13.2890625 9.3984375 C19.92292081 11.19974793 23.83219802 14.23555885 27.4140625 20.0859375 C29.35220017 25.48418599 29.3253911 31.35143317 29.5390625 37.0234375 C29.59191406 38.11140625 29.64476563 39.199375 29.69921875 40.3203125 C29.8705237 46.30853757 29.28579626 49.65482151 26.5390625 55.0234375 C27.1480732 57.37247876 27.81978955 59.70578021 28.5390625 62.0234375 C28.72648521 67.95068075 26.87036608 72.21155455 23.5390625 77.0234375 C18.72841226 81.47328897 15.10700509 83.30627721 8.5390625 83.2734375 C6.9921875 83.28117187 6.9921875 83.28117187 5.4140625 83.2890625 C2.56464039 83.02580067 1.0047309 82.37982969 -1.4609375 81.0234375 C-3.53455738 81.27100195 -3.53455738 81.27100195 -5.4609375 82.0234375 C-10.97613127 83.86183542 -17.5516747 84.28457333 -22.95703125 81.94140625 C-24.87753578 80.7186263 -26.66886565 79.42492959 -28.4609375 78.0234375 C-30.54754423 76.76409109 -30.54754423 76.76409109 -33.5234375 77.2734375 C-38.7858363 76.93931694 -42.32364015 75.2619961 -46.4609375 72.0234375 C-52.15516512 65.08781429 -52.53351722 59.23824119 -52.30078125 50.46875 C-52.45814364 47.08353966 -53.14325272 45.08958863 -54.4609375 42.0234375 C-55.20696009 35.90992768 -54.64884547 31.37912288 -51.4609375 26.0234375 C-50.44672207 22.9807912 -50.13263267 20.2244096 -50.4609375 17.0234375 C-50.9559375 16.5284375 -51.4509375 16.0334375 -51.9609375 15.5234375 C-53.4609375 14.0234375 -53.4609375 14.0234375 -53.9609375 11.5234375 C-53.4609375 9.0234375 -53.4609375 9.0234375 -51.2109375 7.2734375 C-48.4609375 6.0234375 -48.4609375 6.0234375 -46.2734375 5.5234375 C-44.05547469 5.12437104 -44.05547469 5.12437104 -42.4609375 2.0234375 C-37.27262219 1.023044 -32.52918641 1.83174228 -27.7109375 3.8359375 C-25.56757536 4.7420515 -25.56757536 4.7420515 -23.4609375 5.0234375 C-20.85758568 3.74449829 -19.50786618 2.16783898 -17.4609375 0.0234375 C-11.94888016 -1.81391495 -5.45941809 -2.16643575 0 0 Z " fill="#9856FD" transform="translate(56.4609375,2.9765625)"/>
<path d="M0 0 C6.11780704 -1.14079766 11.67118068 -0.06123663 17 3 C18.23922223 6.71766668 17.57018942 8.43889537 16.5625 12.1875 C16.13130859 13.81751953 16.13130859 13.81751953 15.69140625 15.48046875 C15.46324219 16.31191406 15.23507813 17.14335937 15 18 C14.22914062 17.98839844 13.45828125 17.97679688 12.6640625 17.96484375 C11.66117188 17.95582031 10.65828125 17.94679688 9.625 17.9375 C8.12839844 17.92009766 8.12839844 17.92009766 6.6015625 17.90234375 C4.01567547 17.81993398 4.01567547 17.81993398 2 19 C2.81984375 19.07476563 3.6396875 19.14953125 4.484375 19.2265625 C13.18162444 20.28771016 13.18162444 20.28771016 15.6875 22.46875 C16.75 24.125 16.75 24.125 18 27 C17.34 27.639375 16.68 28.27875 16 28.9375 C13.58211539 32.63988581 13.69030654 34.72249699 13.95703125 39.01171875 C14 41 14 41 13 43 C12.83329727 46.04173894 12.83329727 46.04173894 13 49 C13.98267859 50.20561184 13.98267859 50.20561184 15.84765625 50.09765625 C17.8984375 50.06510417 19.94921875 50.03255208 22 50 C22.33 48.68 22.66 47.36 23 46 C23 48.31 23 50.62 23 53 C25.64 53 28.28 53 31 53 C29.31192092 48.76915097 29.31192092 48.76915097 26 46 C26 45.34 26 44.68 26 44 C26.763125 43.773125 27.52625 43.54625 28.3125 43.3125 C31.55904453 41.72697825 32.28802794 40.09785421 34 37 C36 37 36 37 37.54296875 38.3203125 C41.95041075 43.15698282 41.95041075 43.15698282 42.1875 47.1875 C40.72566485 50.64974114 39.138416 51.98244686 36 54 C29.54749386 56.15083538 23.31589907 55.1500933 17 53 C14.9993294 57.00134121 15.70066813 61.04587967 17 65.1875 C19.6832536 68.96082538 22.78255531 70.29699383 27 72 C27 73.32 27 74.64 27 76 C28.32 76 29.64 76 31 76 C31 75.34 31 74.68 31 74 C33.31 74 35.62 74 38 74 C35.12746979 77.14610452 33.06415302 77.91814208 28.75 78.25 C24.52700326 77.96846688 21.74269641 76.94332313 18 75 C17.56816406 74.48824219 17.13632812 73.97648437 16.69140625 73.44921875 C14.2017229 71.31602586 11.91184953 71.42995578 8.6875 71.125 C2.79192629 70.33060755 -0.11255431 69.51784229 -4 65 C-5.79251831 61.3410451 -6.22648888 58.49141689 -6.125 54.4375 C-6.10695313 53.50808594 -6.08890625 52.57867187 -6.0703125 51.62109375 C-6.03550781 50.32365234 -6.03550781 50.32365234 -6 49 C-5.72499496 45.00125328 -5.72499496 45.00125328 -7.5 41.6875 C-9.15911043 37.60885353 -9.61086704 35.35242765 -9 31 C-5.49764151 23.74882075 -5.49764151 23.74882075 -2 22 C-1.67 21.01 -1.34 20.02 -1 19 C-2.98 19.99 -4.96 20.98 -7 22 C-7.103125 20.906875 -7.20625 19.81375 -7.3125 18.6875 C-8.03233653 14.8265586 -8.38953617 14.4969654 -11 12 C-11.5 9.5 -11.5 9.5 -11 7 C-8.64637876 5.1694057 -6.71868592 4.16427107 -3.8125 3.5 C-1.59453719 3.10093354 -1.59453719 3.10093354 0 0 Z " fill="#914AFC" transform="translate(14,5)"/>
<path d="M0 0 C2.90827178 1.76226134 5.0299564 3.27450456 6.95703125 6.109375 C8.94597041 8.51574583 10.27283951 8.752104 13.2890625 9.3984375 C19.92292081 11.19974793 23.83219802 14.23555885 27.4140625 20.0859375 C29.35220017 25.48418599 29.3253911 31.35143317 29.5390625 37.0234375 C29.59191406 38.11140625 29.64476563 39.199375 29.69921875 40.3203125 C29.8705237 46.30853757 29.28579626 49.65482151 26.5390625 55.0234375 C27.1480732 57.37247876 27.81978955 59.70578021 28.5390625 62.0234375 C28.72648521 67.95068075 26.87036608 72.21155455 23.5390625 77.0234375 C18.72841226 81.47328897 15.10700509 83.30627721 8.5390625 83.2734375 C6.9921875 83.28117187 6.9921875 83.28117187 5.4140625 83.2890625 C2.56464039 83.02580067 1.0047309 82.37982969 -1.4609375 81.0234375 C-3.53455738 81.27100195 -3.53455738 81.27100195 -5.4609375 82.0234375 C-10.97613127 83.86183542 -17.5516747 84.28457333 -22.95703125 81.94140625 C-24.87753578 80.7186263 -26.66886565 79.42492959 -28.4609375 78.0234375 C-30.54754423 76.76409109 -30.54754423 76.76409109 -33.5234375 77.2734375 C-38.7858363 76.93931694 -42.32364015 75.2619961 -46.4609375 72.0234375 C-52.15516512 65.08781429 -52.53351722 59.23824119 -52.30078125 50.46875 C-52.45814364 47.08353966 -53.14325272 45.08958863 -54.4609375 42.0234375 C-55.18245768 36.11072018 -54.94881177 31.02272395 -51.4609375 26.0234375 C-49.54961571 24.10192199 -47.67680509 22.62640554 -45.4609375 21.0234375 C-44.8009375 21.0234375 -44.1409375 21.0234375 -43.4609375 21.0234375 C-44.01065315 24.87144704 -45.73131608 26.37653189 -48.4609375 29.0234375 C-50.92749652 32.59994808 -50.88729092 35.75990334 -50.4609375 40.0234375 C-49.51016794 42.18753224 -48.44512746 44.19483488 -47.23828125 46.2265625 C-46.4609375 48.0234375 -46.4609375 48.0234375 -47.4609375 51.0234375 C-47.97018313 57.26169649 -48.17550354 62.71691458 -44.4609375 68.0234375 C-41.17343597 71.10077912 -38.50380777 71.4762168 -34.0859375 71.8984375 C-28.14100737 72.67733652 -25.6344271 73.8499479 -21.4609375 78.0234375 C-17.9398165 79.50003663 -14.23076601 79.28342567 -10.4609375 79.0234375 C-8.45312573 78.03921604 -6.45200998 77.04109677 -4.4609375 76.0234375 C-2.02139601 76.245214 -0.42541139 77.04021372 1.7890625 78.0859375 C6.77739528 79.78650549 10.93595199 79.60918942 15.7890625 77.8359375 C19.3568436 75.48444541 21.63127329 72.83901593 23.5390625 69.0234375 C23.66146385 67.25573423 23.71457403 65.48283288 23.7265625 63.7109375 C23.74074219 62.76605469 23.75492187 61.82117188 23.76953125 60.84765625 C23.52730585 57.87936868 22.77932857 55.71476585 21.5390625 53.0234375 C22.5290625 52.6934375 23.5190625 52.3634375 24.5390625 52.0234375 C24.73410708 49.91995676 24.91984746 47.81561165 25.1015625 45.7109375 C25.25818359 43.95330078 25.25818359 43.95330078 25.41796875 42.16015625 C25.72483684 38.99311175 25.72483684 38.99311175 24.5390625 36.0234375 C24.46275785 33.77386335 24.40226661 31.52373422 24.3515625 29.2734375 C23.98394897 23.53985225 23.23223505 20.26814059 19.20703125 16.16015625 C17.33716249 14.88584288 15.75151268 14.431373 13.5390625 14.0234375 C13.5390625 13.3634375 13.5390625 12.7034375 13.5390625 12.0234375 C12.3015625 12.1471875 11.0640625 12.2709375 9.7890625 12.3984375 C7.55859375 12.41015625 7.55859375 12.41015625 5.5390625 12.0234375 C3.4765625 9.2109375 3.4765625 9.2109375 1.5390625 6.0234375 C-3.64384253 3.03329998 -7.63557642 2.37617516 -13.4609375 3.0234375 C-16.79200914 4.71588735 -16.79200914 4.71588735 -19.4609375 7.0234375 C-20.27884766 7.63058594 -20.27884766 7.63058594 -21.11328125 8.25 C-23.16420741 10.94889993 -22.785373 13.25494881 -22.7109375 16.5859375 C-22.69546875 17.74222656 -22.68 18.89851563 -22.6640625 20.08984375 C-22.65437523 22.95686393 -22.65437523 22.95686393 -21.4609375 25.0234375 C-20.62949219 25.01183594 -19.79804687 25.00023438 -18.94140625 24.98828125 C-17.85472656 24.97925781 -16.76804688 24.97023438 -15.6484375 24.9609375 C-14.56949219 24.94933594 -13.49054687 24.93773438 -12.37890625 24.92578125 C-9.4609375 25.0234375 -9.4609375 25.0234375 -6.4609375 26.0234375 C-6.4609375 25.3634375 -6.4609375 24.7034375 -6.4609375 24.0234375 C-1.7109375 24.7734375 -1.7109375 24.7734375 0.5390625 27.0234375 C0.50618667 29.75213157 -0.02491521 32.3200993 -0.4609375 35.0234375 C-2.4409375 35.0234375 -4.4209375 35.0234375 -6.4609375 35.0234375 C-6.1309375 32.7134375 -5.8009375 30.4034375 -5.4609375 28.0234375 C-8.0279764 28.02947049 -10.58306938 28.07699122 -13.1484375 28.1484375 C-13.86966797 28.14585938 -14.59089844 28.14328125 -15.33398438 28.140625 C-18.35903354 28.25112908 -20.59713266 28.39217053 -23.08520508 30.21044922 C-25.34980843 32.68041411 -26.4113782 34.71973814 -26.94921875 38.015625 C-26.89121094 38.96695313 -26.83320313 39.91828125 -26.7734375 40.8984375 C-26.72832031 41.86523438 -26.68320312 42.83203125 -26.63671875 43.828125 C-26.57871094 44.55257812 -26.52070313 45.27703125 -26.4609375 46.0234375 C-25.6565625 46.0028125 -24.8521875 45.9821875 -24.0234375 45.9609375 C-21.4609375 46.0234375 -21.4609375 46.0234375 -20.4609375 47.0234375 C-20.42029918 48.68960865 -20.4182165 50.35731845 -20.4609375 52.0234375 C-23.16973085 53.37783418 -25.47027018 53.08845201 -28.4609375 53.0234375 C-30.32206806 49.88277967 -30.74060513 47.65911664 -30.4609375 44.0234375 C-30.1309375 43.0334375 -29.8009375 42.0434375 -29.4609375 41.0234375 C-29.5228125 39.9303125 -29.5846875 38.8371875 -29.6484375 37.7109375 C-29.42629234 33.34208265 -28.11378417 31.4223973 -25.4609375 28.0234375 C-26.52489069 25.96098431 -26.52489069 25.96098431 -28.4609375 24.0234375 C-31.63694958 23.10697853 -31.63694958 23.10697853 -35.1484375 22.7734375 C-36.32792969 22.62390625 -37.50742187 22.474375 -38.72265625 22.3203125 C-40.07810547 22.17335938 -40.07810547 22.17335938 -41.4609375 22.0234375 C-40.31640625 20.50390625 -40.31640625 20.50390625 -38.4609375 19.0234375 C-35.76171875 18.94921875 -35.76171875 18.94921875 -32.7734375 19.3359375 C-31.77957031 19.45582031 -30.78570313 19.57570313 -29.76171875 19.69921875 C-29.00246094 19.80621094 -28.24320313 19.91320312 -27.4609375 20.0234375 C-27.43515625 19.37117188 -27.409375 18.71890625 -27.3828125 18.046875 C-26.91394143 10.82199811 -25.41134545 6.68600078 -19.8984375 1.7109375 C-14.34401584 -2.13443134 -6.24141651 -2.47675258 0 0 Z " fill="#750EF6" transform="translate(56.4609375,2.9765625)"/>
<path d="M0 0 C5.28 0 10.56 0 16 0 C15.67 2.31 15.34 4.62 15 7 C16.98 7 18.96 7 21 7 C21.33 6.01 21.66 5.02 22 4 C23.07465731 7.22397192 23.16691803 9.67470786 23.1875 13.0625 C23.20167969 14.12597656 23.21585938 15.18945312 23.23046875 16.28515625 C23 19 23 19 21 21 C20.7525 20.236875 20.505 19.47375 20.25 18.6875 C18.87823242 15.73819971 17.6081283 14.82568981 15 13 C15 12.34 15 11.68 15 11 C12.9754262 12.93254772 11.57894208 14.63158688 10 17 C7.375 17.6875 7.375 17.6875 5 18 C5 18.66 5 19.32 5 20 C5.99 20.33 6.98 20.66 8 21 C9.1875 24.0625 9.1875 24.0625 10 27 C7.36 27 4.72 27 2 27 C1.67 24.69 1.34 22.38 1 20 C0.030625 19.71125 -0.93875 19.4225 -1.9375 19.125 C-5 18 -5 18 -6 16 C-6.16796875 13.94140625 -6.16796875 13.94140625 -6.1875 11.5625 C-6.20167969 10.78003906 -6.21585938 9.99757813 -6.23046875 9.19140625 C-6 7 -6 7 -4 4 C-3.34 4 -2.68 4 -2 4 C-1.34 2.68 -0.68 1.36 0 0 Z " fill="#A269FE" transform="translate(35,31)"/>
<path d="M0 0 C0.969375 0.33 1.93875 0.66 2.9375 1 C9.58705654 2.8941161 16.2752884 2.14463176 23 1 C25.77052324 4.69403099 26.53879947 7.55960366 26.3515625 12.0703125 C25.77369682 15.242153 24.33425716 16.85500693 22 19 C18.01737304 21.2604099 14.52184316 21.45984846 10 21 C5.49938011 19.59250277 2.07127938 17.72159202 -0.5 13.6875 C-2.10459857 9.74286184 -2.48598811 7.21189694 -2 3 C-1.34 2.01 -0.68 1.02 0 0 Z " fill="#A26AFE" transform="translate(31,57)"/>
<path d="M0 0 C6.11780704 -1.14079766 11.67118068 -0.06123663 17 3 C18.23922223 6.71766668 17.57018942 8.43889537 16.5625 12.1875 C16.13130859 13.81751953 16.13130859 13.81751953 15.69140625 15.48046875 C15.46324219 16.31191406 15.23507813 17.14335937 15 18 C14.0821875 17.95359375 13.164375 17.9071875 12.21875 17.859375 C4.5780258 17.63464782 -0.5139157 17.84890605 -7 22 C-7.103125 20.906875 -7.20625 19.81375 -7.3125 18.6875 C-8.03233653 14.8265586 -8.38953617 14.4969654 -11 12 C-11.5 9.5 -11.5 9.5 -11 7 C-8.64637876 5.1694057 -6.71868592 4.16427107 -3.8125 3.5 C-1.59453719 3.10093354 -1.59453719 3.10093354 0 0 Z " fill="#ABE533" transform="translate(14,5)"/>
<path d="M0 0 C2.1346875 0.556875 2.1346875 0.556875 4.3125 1.125 C10.21731112 2.34144177 15.21306967 1.43022993 21 0 C22.4602264 2.64204387 23.00344437 3.83811456 22.9375 6.9375 C21.59327592 11.32863198 19.04885849 13.72662343 15.18359375 16.12890625 C12.46406839 17.2137974 10.29550344 17.23079587 7.375 17.1875 C6.41335937 17.18105469 5.45171875 17.17460938 4.4609375 17.16796875 C2 17 2 17 0 16 C0 10.72 0 5.44 0 0 Z " fill="#A26AFE" transform="translate(57,59)"/>
<path d="M0 0 C0.64453125 1.8515625 0.64453125 1.8515625 1 4 C-0.64429829 5.68873879 -2.31384218 7.35305515 -4 9 C-4.73005539 10.97774204 -5.40649899 12.97708107 -6 15 C-8.45898655 15.08076963 -10.91533742 15.14037143 -13.375 15.1875 C-14.07367188 15.21263672 -14.77234375 15.23777344 -15.4921875 15.26367188 C-17.5234375 15.29296875 -17.5234375 15.29296875 -21 15 C-23 12 -23 12 -22.875 9.125 C-21.68657411 4.88062181 -20.11740536 2.31054189 -16.30859375 -0.046875 C-10.57931102 -2.68581735 -5.91106016 -1.68368312 0 0 Z " fill="#A26AFE" transform="translate(56,14)"/>
<path d="M0 0 C0.33 0 0.66 0 1 0 C1.06058594 0.69867187 1.12117188 1.39734375 1.18359375 2.1171875 C1.26738281 3.02726562 1.35117187 3.93734375 1.4375 4.875 C1.51871094 5.77992187 1.59992187 6.68484375 1.68359375 7.6171875 C1.86989285 10.01110861 1.86989285 10.01110861 3 12 C3.83144531 11.98839844 4.66289063 11.97679687 5.51953125 11.96484375 C6.60621094 11.95582031 7.69289063 11.94679688 8.8125 11.9375 C9.89144531 11.92589844 10.97039063 11.91429687 12.08203125 11.90234375 C15 12 15 12 18 13 C18 12.34 18 11.68 18 11 C22.75 11.75 22.75 11.75 25 14 C24.96712417 16.72869407 24.43602229 19.2966618 24 22 C22.02 22 20.04 22 18 22 C18.33 19.69 18.66 17.38 19 15 C16.4329611 15.00603299 13.87786812 15.05355372 11.3125 15.125 C10.59126953 15.12242188 9.87003906 15.11984375 9.12695312 15.1171875 C6.10190396 15.22769158 3.86380484 15.36873303 1.37573242 17.18701172 C-0.88887093 19.65697661 -1.9504407 21.69630064 -2.48828125 24.9921875 C-2.43027344 25.94351563 -2.37226563 26.89484375 -2.3125 27.875 C-2.26738281 28.84179688 -2.22226562 29.80859375 -2.17578125 30.8046875 C-2.11777344 31.52914062 -2.05976563 32.25359375 -2 33 C-1.195625 32.979375 -0.39125 32.95875 0.4375 32.9375 C3 33 3 33 4 34 C4.04063832 35.66617115 4.042721 37.33388095 4 39 C1.29120665 40.35439668 -1.00933268 40.06501451 -4 40 C-5.86113056 36.85934217 -6.27966763 34.63567914 -6 31 C-5.505 29.515 -5.505 29.515 -5 28 C-5.061875 26.906875 -5.12375 25.81375 -5.1875 24.6875 C-4.96535484 20.31864515 -3.65284667 18.3989598 -1 15 C-1.66 13.68 -2.32 12.36 -3 11 C-2.01 11.33 -1.02 11.66 0 12 C0 8.04 0 4.08 0 0 Z " fill="#8A4AF7" transform="translate(32,16)"/>
<path d="M0 0 C0.66 0.99 1.32 1.98 2 3 C1.38125 3.680625 0.7625 4.36125 0.125 5.0625 C-2.3319068 8.45881234 -3.04945605 10.96018821 -4 15 C-4.87011719 15.18175781 -4.87011719 15.18175781 -5.7578125 15.3671875 C-10.28028442 16.33735474 -14.63750966 17.43397783 -19 19 C-19.45295362 12.54541095 -18.74989695 9.31235401 -15 4 C-10.35648794 -0.2213746 -6.01639015 -0.38199303 0 0 Z " fill="#A26AFE" transform="translate(30,29)"/>
<path d="M0 0 C2.31 0 4.62 0 7 0 C7.144375 0.928125 7.28875 1.85625 7.4375 2.8125 C8.23757226 7.39803107 8.23757226 7.39803107 11 11 C10.525625 11.680625 10.05125 12.36125 9.5625 13.0625 C7.7774364 16.41841956 7.36846914 19.24161481 7 23 C3.57158332 22.14289583 1.34325404 21.30614549 -1.3125 18.9375 C-3.57892974 14.99223341 -4.36414959 11.54799595 -4 7 C-2.9446579 4.31501336 -1.67578528 2.3867245 0 0 Z " fill="#A16AFE" transform="translate(19,46)"/>
<path d="M0 0 C-0.350625 0.804375 -0.70125 1.60875 -1.0625 2.4375 C-2.23803042 6.90451558 -2.28097719 10.5494254 -1 15 C1.24212534 17.84810517 2.9428851 19.53017116 6.25 21 C8 22 8 22 8.75 24.625 C8.8325 25.40875 8.915 26.1925 9 27 C3.58461538 28.23076923 3.58461538 28.23076923 0.625 27.0625 C-0.179375 26.5365625 -0.179375 26.5365625 -1 26 C-1 25.34 -1 24.68 -1 24 C-2.32 23.67 -3.64 23.34 -5 23 C-5 22.01 -5 21.02 -5 20 C-5.99 20 -6.98 20 -8 20 C-8.19573608 18.56359829 -8.38127816 17.12580496 -8.5625 15.6875 C-8.66691406 14.88699219 -8.77132813 14.08648437 -8.87890625 13.26171875 C-9 11 -9 11 -8 8 C-7.01 8 -6.02 8 -5 8 C-5.061875 7.236875 -5.12375 6.47375 -5.1875 5.6875 C-5 3 -5 3 -3.625 1.1875 C-2 0 -2 0 0 0 Z " fill="#9746FE" transform="translate(18,47)"/>
<path d="M0 0 C2 0 2 0 3.54296875 1.3203125 C7.9845077 6.19440037 7.9845077 6.19440037 8.0625 10.25 C6.42164948 14.49690722 6.42164948 14.49690722 4 16 C0.77909921 16.4026126 -1.1335699 16.6274149 -3.8125 14.6875 C-5 13 -5 13 -6 10 C-6.66 9.67 -7.32 9.34 -8 9 C-8 8.34 -8 7.68 -8 7 C-7.236875 6.773125 -6.47375 6.54625 -5.6875 6.3125 C-2.44095547 4.72697825 -1.71197206 3.09785421 0 0 Z " fill="#6C14F0" transform="translate(48,42)"/>
<path d="M0 0 C6.11780704 -1.14079766 11.67118068 -0.06123663 17 3 C17.33 3.99 17.66 4.98 18 6 C12.63486869 5.152874 7.3212615 4.08318169 2 3 C2 3.99 2 4.98 2 6 C-2.455 7.485 -2.455 7.485 -7 9 C-5.19587357 12.26460973 -4.16605307 13.88929795 -1 16 C-1.639375 16.2475 -2.27875 16.495 -2.9375 16.75 C-5.18741541 17.81562433 -5.18741541 17.81562433 -5.75 20.125 C-5.8325 20.74375 -5.915 21.3625 -6 22 C-7.09603323 19.9540713 -7.96660153 18.14194351 -8.5 15.875 C-8.89277065 13.77320517 -8.89277065 13.77320517 -11 12 C-11.4375 9.5625 -11.4375 9.5625 -11 7 C-8.64637876 5.1694057 -6.71868592 4.16427107 -3.8125 3.5 C-1.59453719 3.10093354 -1.59453719 3.10093354 0 0 Z " fill="#448C01" transform="translate(14,5)"/>
<path d="M0 0 C3.61741876 2.73152028 5.09857028 4.64154085 6 9 C4.865625 8.649375 3.73125 8.29875 2.5625 7.9375 C-3.14560565 6.49523843 -8.45866926 7.15288975 -14 9 C-15.32 7.35 -16.64 5.7 -18 4 C-11.96781542 -1.05399249 -7.61062163 -1.78430842 0 0 Z " fill="#A369FE" transform="translate(71,23)"/>
<path d="M0 0 C5.28 0 10.56 0 16 0 C15.67 1.65 15.34 3.3 15 5 C14.41992188 4.96519531 13.83984375 4.93039063 13.2421875 4.89453125 C8.07611354 4.71550889 4.29962501 4.80027906 0 8 C-1.62116434 10.5605306 -2.86649404 13.19290584 -4 16 C-4.66 16 -5.32 16 -6 16 C-6.05422947 14.5629191 -6.09289723 13.12524538 -6.125 11.6875 C-6.14820312 10.88699219 -6.17140625 10.08648437 -6.1953125 9.26171875 C-6 7 -6 7 -4 4 C-3.34 4 -2.68 4 -2 4 C-1.34 2.68 -0.68 1.36 0 0 Z " fill="#9546FE" transform="translate(35,31)"/>
<path d="M0 0 C2.3125 -0.3125 2.3125 -0.3125 5 0 C8.29617603 4.04248004 8.37417543 7.8105559 8.1875 12.8125 C8.17396484 13.50537109 8.16042969 14.19824219 8.14648438 14.91210938 C8.11138845 16.60841265 8.05758943 18.30431136 8 20 C6.68 20 5.36 20 4 20 C3.34 21.32 2.68 22.64 2 24 C1.01 23.67 0.02 23.34 -1 23 C-0.525625 22.21625 -0.05125 21.4325 0.4375 20.625 C3.24572312 15.90718517 3.53291529 12.4534998 3 7 C2.21116137 4.47755089 1.20849884 2.36664357 0 0 Z " fill="#9546FE" transform="translate(73,35)"/>
<path d="M0 0 C0.33 0 0.66 0 1 0 C1 2.31 1 4.62 1 7 C1.60328125 6.90460937 2.2065625 6.80921875 2.828125 6.7109375 C4.02695312 6.54464844 4.02695312 6.54464844 5.25 6.375 C6.03890625 6.25898437 6.8278125 6.14296875 7.640625 6.0234375 C10.32152459 5.99680605 11.72694089 6.63407916 14 8 C7.54749386 10.15083538 1.31589907 9.1500933 -5 7 C-5.66 9.97 -6.32 12.94 -7 16 C-7.99 16 -8.98 16 -10 16 C-9.21988389 7.88679245 -9.21988389 7.88679245 -6 5 C-2.8125 4.25 -2.8125 4.25 0 4 C0 2.68 0 1.36 0 0 Z " fill="#8D52F9" transform="translate(36,51)"/>
<path d="M0 0 C0.99 0.33 1.98 0.66 3 1 C2.01 1.495 2.01 1.495 1 2 C6.94 2.99 6.94 2.99 13 4 C13 4.33 13 4.66 13 5 C8.05 5.33 3.1 5.66 -2 6 C-2 6.99 -2 7.98 -2 9 C-2.99 9.33 -3.98 9.66 -5 10 C-5.33 10.99 -5.66 11.98 -6 13 C-6.99 12.67 -7.98 12.34 -9 12 C-5.25 6.125 -5.25 6.125 -3 5 C-2.835 4.34 -2.67 3.68 -2.5 3 C-2.335 2.34 -2.17 1.68 -2 1 C-1.34 0.67 -0.68 0.34 0 0 Z " fill="#8846F0" transform="translate(15,22)"/>
<path d="M0 0 C2.01822917 0.06510417 4.03645833 0.13020833 6.0546875 0.1953125 C6.0546875 1.8453125 6.0546875 3.4953125 6.0546875 5.1953125 C3.34589415 6.54970918 1.04535482 6.26032701 -1.9453125 6.1953125 C-2.6053125 4.8753125 -3.2653125 3.5553125 -3.9453125 2.1953125 C-1.9453125 0.1953125 -1.9453125 0.1953125 0 0 Z " fill="#5F0AEF" transform="translate(29.9453125,49.8046875)"/>
<path d="M0 0 C2.125 0.375 2.125 0.375 4 1 C3.67 3.64 3.34 6.28 3 9 C1.02 9 -0.96 9 -3 9 C-2.25 2.25 -2.25 2.25 0 0 Z " fill="#5D09EF" transform="translate(53,29)"/>
<path d="M0 0 C0.66 0 1.32 0 2 0 C3.05082025 3.76543923 3.3391456 5.3759721 1.4375 8.875 C-1 11 -1 11 -4.25 11.3125 C-5.1575 11.209375 -6.065 11.10625 -7 11 C-7 10.01 -7 9.02 -7 8 C-6.21625 7.79375 -5.4325 7.5875 -4.625 7.375 C-1.69083714 6.19323388 -1.69083714 6.19323388 -0.6875 2.875 C-0.460625 1.92625 -0.23375 0.9775 0 0 Z " fill="#670EEF" transform="translate(53,47)"/>
<path d="M0 0 C2.31590289 3.47385433 2.26991835 4.96430006 2.25 9.0625 C2.25515625 10.12597656 2.2603125 11.18945312 2.265625 12.28515625 C2 15 2 15 0 17 C-0.96661363 13.87819599 -0.98988909 11.47916205 -0.5625 8.25 C-0.46066406 7.45078125 -0.35882813 6.6515625 -0.25390625 5.828125 C-0.17011719 5.22484375 -0.08632813 4.6215625 0 4 C-1.65 4 -3.3 4 -5 4 C-5 3.67 -5 3.34 -5 3 C-3.35 3 -1.7 3 0 3 C0 2.01 0 1.02 0 0 Z " fill="#8B4CF8" transform="translate(56,35)"/>
<path d="M0 0 C0.99 0.66 1.98 1.32 3 2 C2.67 3.32 2.34 4.64 2 6 C0.68 6 -0.64 6 -2 6 C-2 5.01 -2 4.02 -2 3 C-1.34 2.67 -0.68 2.34 0 2 C0 1.34 0 0.68 0 0 Z " fill="#E7D8F6" transform="translate(49,48)"/>
</svg>
